PathFileType	4	(X/Y/Z)	s08c0201.trc
DataRate	CameraRate	NumFrames	NumMarkers	Units	OrigDataRate	OrigDataStartFrame	OrigNumFrames
200	200	5	50	mm	200	1250	2000
Frame#	Time	racr			lacr			c7			jug			rlel			rdr			llel			ldr			s2			lic			ric			lasi			rasi			rpsi			lpsi			rgt			lgt			rth1			rth2			rth3			rth4			rlfc			rmfc			rsh1			rsh2			rsh3			rsh4			rlmal			rmmal			rcal			rtoe			rmt5			lth1			lth2			lth4			lth3			llfc			lmfc			llmal			lmmal			lcal			lmt5			lsh1			lsh2			lsh3			lsh4			ltoe			SBIKE			LBIKE			RBIKE			
		X1	Y1	Z1	X2	Y2	Z2	X3	Y3	Z3	X4	Y4	Z4	X5	Y5	Z5	X6	Y6	Z6	X7	Y7	Z7	X8	Y8	Z8	X9	Y9	Z9	X10	Y10	Z10	X11	Y11	Z11	X12	Y12	Z12	X13	Y13	Z13	X14	Y14	Z14	X15	Y15	Z15	X16	Y16	Z16	X17	Y17	Z17	X18	Y18	Z18	X19	Y19	Z19	X20	Y20	Z20	X21	Y21	Z21	X22	Y22	Z22	X23	Y23	Z23	X24	Y24	Z24	X25	Y25	Z25	X26	Y26	Z26	X27	Y27	Z27	X28	Y28	Z28	X29	Y29	Z29	X30	Y30	Z30	X31	Y31	Z31	X32	Y32	Z32	X33	Y33	Z33	X34	Y34	Z34	X35	Y35	Z35	X36	Y36	Z36	X37	Y37	Z37	X38	Y38	Z38	X39	Y39	Z39	X40	Y40	Z40	X41	Y41	Z41	X42	Y42	Z42	X43	Y43	Z43	X44	Y44	Z44	X45	Y45	Z45	X46	Y46	Z46	X47	Y47	Z47	X48	Y48	Z48	X49	Y49	Z49	X50	Y50	Z50	
1250	6.2500	547.344140	1333.012737	-91.283946	554.888250	1317.865886	-460.090092	539.995059	1427.748674	-275.829047	501.162002	1269.071217	-271.205600	544.857952	1094.952324	36.210675	771.281252	934.495593	-73.326002	528.287342	1050.394354	-555.926083	748.299445	928.172591	-440.898883	-1.227373	1197.421329	-256.912867	149.986909	1197.509982	-414.476020	154.933692	1215.152493	-95.172444	181.255485	1150.444378	-378.461560	188.751659	1165.836739	-132.502933	29.279123	1240.149372	-208.369581	28.923150	1239.578293	-304.327589	103.950757	1104.145749	-59.586508	103.019975	1069.128681	-434.570291	245.149946	1003.120655	-64.853476	327.748908	971.263735	-73.184925	381.424574	902.746742	-81.892523	346.836990	998.887795	-89.084674	455.674297	820.458242	-104.666657	429.146270	806.644715	-211.461152	348.232512	752.125679	-66.015403	300.184426	676.606432	-79.121797	224.490183	636.277274	-76.630770	322.376521	656.725404	-106.766287	130.331893	562.375238	-74.099307	155.828225	562.773639	-161.788751	52.221621	586.315736	-118.089999	269.187226	383.305478	-109.268829	182.963407	420.978947	-43.618624	182.722061	953.443649	-440.549641	248.947317	896.731778	-434.557812	278.252861	917.205892	-425.323813	277.739939	812.841017	-429.822485	334.570935	700.342032	-407.136499	330.520047	673.421289	-304.347094	287.797346	282.883054	-411.697950	326.915859	315.022175	-340.919749	224.028680	260.201767	-373.474381	432.089348	198.477490	-424.473517	315.125229	571.460062	-433.328760	329.519728	488.266119	-418.415191	301.994813	404.225315	-418.979785	350.512382	490.152608	-384.180749	512.609514	230.153814	-354.602927	-139.550322	941.657687	-231.760417	17.078026	79.363492	-428.414385	16.985140	79.922303	-30.013407	
1251	6.2550	547.455116	1331.064651	-88.999674	556.227488	1318.565460	-457.554129	540.359722	1427.794819	-272.826251	501.923083	1268.949597	-268.986416	544.188236	1092.503186	37.789499	771.896036	934.574698	-74.058854	529.676921	1051.996050	-555.564196	748.915129	928.370225	-441.148803	-1.189617	1198.036976	-259.154613	151.642712	1197.803555	-415.489094	152.814216	1216.417396	-96.067556	181.549360	1149.838242	-379.432920	187.576816	1167.272693	-133.115838	28.724960	1241.255848	-210.775728	29.220322	1240.213946	-306.419229	102.748956	1106.827986	-60.693425	102.100271	1068.847794	-435.326985	245.408069	1007.929726	-65.186259	328.656051	977.717170	-73.533573	383.427849	909.925110	-81.779757	347.141035	1005.650465	-89.249993	459.815227	829.123881	-104.970266	433.464012	815.070782	-214.471392	352.725414	760.623138	-66.787194	304.853550	685.081401	-79.529711	229.181917	644.636587	-77.009150	327.127469	664.919530	-107.048197	135.305276	570.144836	-74.546842	160.818050	570.916912	-162.100746	57.270242	593.052163	-117.917674	277.033472	393.798018	-109.171229	190.184097	429.616762	-43.880643	178.782017	951.556624	-442.004430	243.688773	893.244487	-436.115932	273.523373	912.855285	-426.798020	270.505889	808.629298	-431.572828	324.666276	694.324463	-408.689303	319.186849	668.270685	-306.433196	281.312044	276.739842	-411.758340	320.639734	309.070844	-341.222967	218.249155	255.335391	-373.231119	425.072487	190.187425	-424.343660	305.593088	565.350674	-434.808031	320.930550	482.342660	-419.657218	294.283281	398.080419	-419.960101	341.964965	484.512687	-385.609155	506.280010	220.690352	-354.606466	-139.574142	941.639058	-231.691916	17.081817	79.373433	-428.417287	17.023975	79.992247	-30.039844	
1252	6.2600	547.626213	1329.265107	-86.740379	557.439311	1319.259461	-454.932609	540.791962	1427.831010	-269.783181	502.607038	1268.857980	-266.699877	543.477084	1090.182245	38.951562	772.327323	934.678615	-74.794530	531.034853	1053.702209	-555.170191	749.506871	928.579797	-441.471083	-1.068023	1198.739963	-261.169411	152.999238	1198.101539	-416.046715	150.744728	1217.648940	-96.989169	181.684704	1149.124664	-380.324745	186.755871	1168.659162	-133.523651	28.097602	1242.390580	-213.071605	29.408201	1240.885335	-308.409128	101.435116	1109.522411	-61.639282	100.897879	1068.640913	-436.010978	245.627852	1012.887268	-65.620488	329.399849	984.394819	-73.803629	385.813634	917.938420	-81.558195	347.795537	1012.539406	-89.660778	463.907574	837.811784	-104.955160	430.261031	831.757963	-239.063676	357.331234	769.121326	-67.279989	309.652728	693.240359	-79.801083	234.150064	652.798323	-77.358944	331.987273	673.120373	-107.219197	140.636580	577.258126	-74.842760	166.115547	578.545342	-162.297445	61.334269	598.919208	-118.408406	284.534984	402.782371	-110.508745	197.747670	437.790983	-44.116729	174.712200	949.906571	-443.310616	238.326380	890.049224	-437.752167	268.616214	908.970297	-428.396137	263.050087	804.776451	-433.406073	314.370248	688.862138	-410.427554	309.420353	663.019926	-307.646056	274.424284	271.072790	-411.766991	314.550601	303.380068	-341.770940	212.033851	250.925372	-372.962065	417.759946	182.345834	-424.185810	295.495841	559.697522	-436.124563	311.865318	476.926279	-421.132234	285.996018	392.451623	-420.959223	333.138234	479.405100	-387.242552	499.451381	211.639855	-354.569190	-139.634270	941.552648	-231.574021	17.102002	79.435925	-428.450852	17.042245	80.070935	-30.045769	
1253	6.2650	547.789905	1327.616878	-84.509308	557.899447	1319.063655	-450.242980	541.138332	1427.837060	-266.715867	502.713863	1268.883686	-263.050346	543.277078	1088.025404	40.396518	772.643984	934.801405	-75.371792	532.170748	1055.623126	-555.238200	750.032045	928.851215	-442.065133	-1.045145	1199.447829	-263.114835	154.356086	1198.365005	-416.869344	148.763557	1219.063304	-97.984537	181.706323	1148.468523	-381.163958	185.643542	1170.173883	-133.982273	27.154595	1243.553901	-215.085811	29.616740	1241.571435	-310.358106	100.044807	1112.364010	-62.391263	99.440262	1068.486701	-436.631330	245.845399	1017.987239	-66.103888	330.460050	990.789284	-74.607133	387.462099	924.942614	-80.977932	348.041493	1019.569369	-89.550732	467.704610	846.296631	-105.061445	436.221702	844.771147	-249.962610	361.954805	777.496994	-67.780767	314.562161	701.347914	-80.038577	239.135874	660.520254	-77.399017	337.110268	681.128942	-107.071408	146.270387	583.847546	-75.098440	171.613179	585.585941	-162.261504	66.317996	604.237668	-118.416247	293.631454	412.626168	-110.291941	205.849902	445.786408	-44.293896	170.671031	948.505748	-444.591301	232.859063	887.113683	-439.503184	263.392602	905.191195	-430.088269	255.593615	801.273208	-435.356193	304.147595	683.816508	-412.223358	299.470341	658.406473	-309.332501	267.221466	265.838153	-411.774512	307.597859	298.307983	-342.100029	205.493660	247.159869	-372.732146	409.974649	174.914065	-424.102025	285.042104	554.610565	-437.629932	302.456890	472.034975	-422.628410	277.291456	387.284686	-421.908277	324.084641	474.750450	-389.033571	492.103896	202.898139	-354.476279	-139.665778	941.550081	-231.679112	17.100227	79.449766	-428.465215	17.022181	80.113993	-30.046710	
1254	6.2700	548.027524	1325.937109	-82.154531	558.473538	1319.084773	-445.389944	541.534541	1427.750736	-263.505766	502.974230	1268.789392	-259.436264	542.774177	1085.526554	41.507083	772.861381	934.885818	-75.813927	533.547132	1057.334783	-554.820529	750.609810	929.018543	-442.306541	-0.886606	1199.965296	-265.220265	155.633544	1198.470036	-417.597746	146.889481	1220.430201	-98.943261	181.707079	1147.750394	-382.070700	184.507515	1171.648385	-134.469679	25.087011	1244.719811	-216.457487	29.928425	1242.209429	-312.168445	98.759990	1115.123905	-62.995806	97.773394	1068.345699	-437.190985	245.976735	1023.229364	-66.662631	331.130666	997.439671	-74.863479	389.497371	933.194509	-80.884603	349.003261	1027.255375	-89.285846	471.630835	855.105360	-104.722692	448.052324	854.908867	-250.937810	366.575141	785.572207	-68.192256	319.655080	709.053946	-80.104787	244.569909	667.689758	-77.252585	342.422735	688.638641	-106.909001	152.311871	589.717971	-75.220379	177.917784	592.196568	-162.933534	71.607493	608.793695	-118.317624	302.549211	421.086162	-111.237219	214.596787	453.067124	-44.435074	166.457985	947.071611	-445.673040	227.274133	884.375728	-441.334116	258.230519	901.813795	-431.981383	247.872703	797.974626	-437.503207	293.988078	679.157381	-413.940734	289.410109	654.200694	-311.482494	259.623996	261.236071	-411.832776	300.539777	293.637434	-342.558413	198.464317	243.822784	-372.460475	401.594822	167.934021	-423.884103	274.406804	549.931642	-439.168869	292.764455	467.700154	-424.378298	268.210454	382.557808	-422.854852	314.877170	470.381228	-390.859720	484.423369	194.633920	-354.492040	-139.691430	941.556832	-231.780243	17.094701	79.475361	-428.469029	17.031657	80.111678	-30.050733	
